<svg width="27" height="26" viewBox="0 0 27 26" fill="none" xmlns="http://www.w3.org/2000/svg">
<g clip-path="url(#clip0_20_1779)">
<path d="M8.10122 11.3243L6.10609 11.4638L6.59439 18.4468L8.58952 18.3073L8.10122 11.3243ZM14.0866 10.9058L12.0915 11.0453L12.5798 18.0283L14.5749 17.8887L14.0866 10.9058ZM23.1937 19.2909L4.23999 20.6163L4.3795 22.6114L23.3332 21.2861L23.1937 19.2909ZM20.072 10.4873L18.0769 10.6268L18.5652 17.6097L20.5603 17.4702L20.072 10.4873ZM12.6189 4.25196L18.0073 6.62186L7.61271 7.34872L12.6189 4.25196ZM12.4612 1.99747L3.33316 7.64798L3.47267 9.6431L22.4264 8.31773L22.2869 6.3226L12.4612 1.99747Z" fill="#11190C"/>
</g>
<defs>
<clipPath id="clip0_20_1779">
<rect width="24" height="24" fill="white" transform="translate(0.917969 1.80176) rotate(-4)"/>
</clipPath>
</defs>
</svg>
