<svg width="33" height="32" viewBox="0 0 33 32" fill="none" xmlns="http://www.w3.org/2000/svg">
<path d="M7.33203 6.4C7.33203 4.56933 8.7587 3 10.6174 3H22.0467C23.9067 3 25.332 4.56933 25.332 6.4V25.6C25.332 27.4307 23.9054 29 22.0467 29H10.6174C8.75736 29 7.33203 27.4307 7.33203 25.6V6.4ZM14.332 7C14.0668 7 13.8125 7.10536 13.6249 7.29289C13.4374 7.48043 13.332 7.73478 13.332 8C13.332 8.26522 13.4374 8.51957 13.6249 8.70711C13.8125 8.89464 14.0668 9 14.332 9H18.332C18.5972 9 18.8516 8.89464 19.0391 8.70711C19.2267 8.51957 19.332 8.26522 19.332 8C19.332 7.73478 19.2267 7.48043 19.0391 7.29289C18.8516 7.10536 18.5972 7 18.332 7H14.332Z" fill="#E6FF02"/>
</svg>
