<svg width="37" height="32" viewBox="0 0 37 32" fill="none" xmlns="http://www.w3.org/2000/svg">
<g clip-path="url(#clip0_49_693)">
<path d="M4.66797 4C2.46172 4 0.667969 5.79375 0.667969 8V24C0.667969 26.2062 2.46172 28 4.66797 28H32.668C34.8742 28 36.668 26.2062 36.668 24V8C36.668 5.79375 34.8742 4 32.668 4H4.66797ZM8.66797 24H4.66797V20C6.87422 20 8.66797 21.7938 8.66797 24ZM4.66797 12V8H8.66797C8.66797 10.2063 6.87422 12 4.66797 12ZM28.668 24C28.668 21.7938 30.4617 20 32.668 20V24H28.668ZM32.668 12C30.4617 12 28.668 10.2063 28.668 8H32.668V12ZM18.668 10C20.2593 10 21.7854 10.6321 22.9106 11.7574C24.0358 12.8826 24.668 14.4087 24.668 16C24.668 17.5913 24.0358 19.1174 22.9106 20.2426C21.7854 21.3679 20.2593 22 18.668 22C17.0767 22 15.5505 21.3679 14.4253 20.2426C13.3001 19.1174 12.668 17.5913 12.668 16C12.668 14.4087 13.3001 12.8826 14.4253 11.7574C15.5505 10.6321 17.0767 10 18.668 10Z" fill="#E6FF02"/>
</g>
<defs>
<clipPath id="clip0_49_693">
<rect width="36" height="32" fill="white" transform="translate(0.667969)"/>
</clipPath>
</defs>
</svg>
