<svg width="32" height="32" viewBox="0 0 32 32" fill="none" xmlns="http://www.w3.org/2000/svg">
<path fill-rule="evenodd" clip-rule="evenodd" d="M8.66536 21.3333H21.332C23.8467 21.3333 25.1027 21.3333 25.884 20.552C26.6654 19.7707 26.6654 18.5147 26.6654 16V9.33333C26.6654 6.81867 26.6654 5.56267 25.884 4.78133C25.1027 4 23.8467 4 21.332 4H10.6654C8.1507 4 6.8947 4 6.11336 4.78133C5.33203 5.56267 5.33203 6.81867 5.33203 9.33333V24.6667C5.33203 23.7826 5.68322 22.9348 6.30834 22.3096C6.93346 21.6845 7.78131 21.3333 8.66536 21.3333ZM21.884 12.552C22.1387 12.306 22.3419 12.0118 22.4816 11.6864C22.6214 11.3611 22.695 11.0111 22.698 10.6571C22.7011 10.303 22.6336 9.95185 22.4996 9.62412C22.3655 9.2964 22.1675 8.99866 21.9171 8.74828C21.6667 8.4979 21.369 8.29989 21.0412 8.16581C20.7135 8.03173 20.3624 7.96426 20.0083 7.96733C19.6542 7.97041 19.3043 8.04397 18.979 8.18373C18.6536 8.32349 18.3594 8.52664 18.1134 8.78133L14.6654 12.2293L13.884 11.448C13.638 11.1933 13.3438 10.9902 13.0184 10.8504C12.6931 10.7106 12.3432 10.6371 11.9891 10.634C11.635 10.6309 11.2839 10.6984 10.9562 10.8325C10.6284 10.9666 10.3307 11.1646 10.0803 11.4149C9.82993 11.6653 9.63192 11.9631 9.49784 12.2908C9.36376 12.6185 9.29629 12.9697 9.29936 13.3237C9.30244 13.6778 9.376 14.0277 9.51576 14.3531C9.65552 14.6784 9.85867 14.9727 10.1134 15.2187L11.8374 16.9427C12.5875 17.6926 13.6047 18.1138 14.6654 18.1138C15.726 18.1138 16.7433 17.6926 17.4934 16.9427L21.884 12.552Z" fill="#E6FF02"/>
<path d="M14.6667 12.2297L13.724 13.1723L14.6667 14.115L15.6093 13.1723L14.6667 12.2297ZM21.3333 20.0003H8.66667V22.667H21.3333V20.0003ZM24.9427 19.6097C24.8413 19.711 24.66 19.8363 24.0813 19.915C23.4653 19.9977 22.628 20.0003 21.3333 20.0003V22.667C22.5533 22.667 23.6013 22.6697 24.4373 22.5577C25.3107 22.4403 26.1493 22.175 26.828 21.495L24.9427 19.6097ZM25.3333 16.0003C25.3333 17.295 25.3307 18.1323 25.248 18.7483C25.1693 19.327 25.044 19.5083 24.9427 19.6097L26.828 21.495C27.508 20.815 27.7733 19.9777 27.8907 19.1043C28.0027 18.267 28 17.2203 28 16.0003H25.3333ZM25.3333 9.33366V16.0003H28V9.33366H25.3333ZM24.9427 5.72433C25.044 5.82566 25.1693 6.007 25.248 6.58566C25.3307 7.20033 25.3333 8.039 25.3333 9.33366H28C28 8.11366 28.0027 7.06566 27.8907 6.22966C27.7733 5.35633 27.508 4.51766 26.828 3.839L24.9427 5.72433ZM21.3333 5.33366C22.628 5.33366 23.4653 5.33633 24.0813 5.419C24.66 5.49766 24.8413 5.623 24.9427 5.72433L26.828 3.839C26.148 3.159 25.3107 2.89366 24.4373 2.77633C23.6 2.66433 22.5533 2.667 21.3333 2.667V5.33366ZM10.6667 5.33366H21.3333V2.667H10.6667V5.33366ZM7.05734 5.72433C7.15867 5.623 7.34001 5.49766 7.91867 5.419C8.53334 5.33633 9.37201 5.33366 10.6667 5.33366V2.667C9.44667 2.667 8.39867 2.66433 7.56267 2.77633C6.68934 2.89366 5.85067 3.159 5.17201 3.839L7.05734 5.72433ZM6.66667 9.33366C6.66667 8.039 6.66934 7.20166 6.75201 6.58566C6.83067 6.007 6.95601 5.82566 7.05734 5.72433L5.17201 3.839C4.49201 4.519 4.22667 5.35633 4.10934 6.22966C3.99734 7.067 4.00001 8.11366 4.00001 9.33366H6.66667ZM6.66667 24.667V9.33366H4.00001V24.667H6.66667ZM8.66667 20.0003C7.429 20.0003 6.24201 20.492 5.36684 21.3672C4.49167 22.2423 4.00001 23.4293 4.00001 24.667H6.66667C6.66667 24.1366 6.87739 23.6279 7.25246 23.2528C7.62753 22.8777 8.13624 22.667 8.66667 22.667V20.0003ZM20.9427 9.72433C21.1926 9.97437 21.3331 10.3134 21.3331 10.667C21.3331 11.0206 21.1926 11.3596 20.9427 11.6097L22.828 13.495C23.5779 12.7449 23.9992 11.7277 23.9992 10.667C23.9992 9.60634 23.5779 8.58911 22.828 7.839L20.9427 9.72433ZM19.0573 9.72433C19.3074 9.47437 19.6465 9.33395 20 9.33395C20.3536 9.33395 20.6926 9.47437 20.9427 9.72433L22.828 7.839C22.0779 7.08911 21.0607 6.66785 20 6.66785C18.9393 6.66785 17.9221 7.08911 17.172 7.839L19.0573 9.72433ZM15.6093 13.1723L19.0573 9.72433L17.172 7.839L13.724 11.2857L15.6093 13.1723ZM12.9427 12.391L13.724 13.1723L15.6093 11.2857L14.828 10.5057L12.9427 12.391ZM11.0573 12.391C11.3074 12.141 11.6465 12.0006 12 12.0006C12.3536 12.0006 12.6926 12.141 12.9427 12.391L14.828 10.5057C14.0779 9.75578 13.0607 9.33452 12 9.33452C10.9393 9.33452 9.92212 9.75578 9.17201 10.5057L11.0573 12.391ZM11.0573 14.2763C10.8074 14.0263 10.667 13.6872 10.667 13.3337C10.667 12.9801 10.8074 12.641 11.0573 12.391L9.17201 10.5057C8.42212 11.2558 8.00086 12.273 8.00086 13.3337C8.00086 14.3943 8.42212 15.4116 9.17201 16.1617L11.0573 14.2763ZM12.7813 16.0003L11.0573 14.2763L9.17201 16.1617L10.896 17.8857L12.7813 16.0003ZM16.552 16.0003C16.0519 16.5003 15.3738 16.7811 14.6667 16.7811C13.9596 16.7811 13.2814 16.5003 12.7813 16.0003L10.896 17.8857C11.8962 18.8855 13.2525 19.4472 14.6667 19.4472C16.0809 19.4472 17.4372 18.8855 18.4373 17.8857L16.552 16.0003ZM20.9427 11.6097L16.552 16.0003L18.4373 17.8857L22.828 13.495L20.9427 11.6097ZM14.6667 26.667H8.66667V29.3337H14.6667V26.667ZM4.00001 24.667C4.00001 25.9047 4.49167 27.0917 5.36684 27.9668C6.24201 28.842 7.429 29.3337 8.66667 29.3337V26.667C8.13624 26.667 7.62753 26.4563 7.25246 26.0812C6.87739 25.7061 6.66667 25.1974 6.66667 24.667H4.00001Z" fill="#E6FF02"/>
<path d="M26.6654 28H13.332" stroke="#E6FF02" stroke-width="2.66667" stroke-linecap="round"/>
</svg>
