<svg width="1646" height="549" viewBox="0 0 1646 549" fill="none" xmlns="http://www.w3.org/2000/svg">
<rect width="182.857" height="182.857" transform="matrix(1 0 0 -1 365.855 365.714)" fill="#9F998A"/>
<rect width="182.857" height="182.857" transform="matrix(1 0 0 -1 0 365.714)" fill="#9F998A"/>
<rect width="182.857" height="182.857" transform="matrix(1 0 0 -1 731.57 365.714)" fill="#9F998A"/>
<rect width="182.857" height="182.857" transform="matrix(1 0 0 -1 1097.29 365.714)" fill="#9F998A"/>
<rect width="182.857" height="182.857" transform="matrix(1 0 0 -1 1463 365.714)" fill="#9F998A"/>
<rect width="182.857" height="182.857" transform="matrix(1 0 0 -1 914.43 548.571)" fill="#9F998A"/>
<rect width="182.857" height="182.857" transform="matrix(1 0 0 -1 548.715 548.571)" fill="#9F998A"/>
<rect width="182.857" height="182.857" transform="matrix(1 0 0 -1 183 548.571)" fill="#9F998A"/>
<rect width="182.857" height="182.857" transform="matrix(1 0 0 -1 1280.14 548.571)" fill="#9F998A"/>
<rect width="182.857" height="182.857" transform="matrix(1 0 0 -1 183 182.857)" fill="#9F998A"/>
<rect width="182.857" height="182.857" transform="matrix(1 0 0 -1 548.715 182.857)" fill="#9F998A"/>
<rect width="182.857" height="182.857" transform="matrix(1 0 0 -1 914.43 182.857)" fill="#9F998A"/>
<rect width="182.857" height="182.857" transform="matrix(1 0 0 -1 1280.14 182.857)" fill="#9F998A"/>
</svg>
