<svg width="1289" height="323" viewBox="0 0 1289 323" fill="none" xmlns="http://www.w3.org/2000/svg">
<rect width="161.125" height="161.125" transform="matrix(1 0 0 -1 0 322.25)" fill="#E6FF02"/>
<rect width="161.125" height="161.125" transform="matrix(1 0 0 -1 322.25 322.25)" fill="#E6FF02"/>
<rect width="161.125" height="161.125" transform="matrix(1 0 0 -1 644.5 322.25)" fill="#E6FF02"/>
<rect width="161.125" height="161.125" transform="matrix(1 0 0 -1 966.75 322.25)" fill="#E6FF02"/>
<rect width="161.125" height="161.125" transform="matrix(1 0 0 -1 161.125 161.125)" fill="#E6FF02"/>
<rect width="161.125" height="161.125" transform="matrix(1 0 0 -1 483.375 161.125)" fill="#E6FF02"/>
<rect width="161.125" height="161.125" transform="matrix(1 0 0 -1 805.625 161.125)" fill="#E6FF02"/>
<rect width="161.125" height="161.125" transform="matrix(1 0 0 -1 1127.88 161.125)" fill="#E6FF02"/>
</svg>
