<svg width="72" height="72" viewBox="0 0 72 72" fill="none" xmlns="http://www.w3.org/2000/svg">
<rect width="72" height="72" rx="36" fill="white"/>
<path fill-rule="evenodd" clip-rule="evenodd" d="M30.6611 46.6717L39.9944 37.3344C40.7004 36.6289 41.0972 35.6719 41.0976 34.6738C41.098 33.6757 40.7019 32.7184 39.9964 32.0124C39.2909 31.3064 38.3339 30.9096 37.3358 30.9092C36.3377 30.9088 35.3804 31.3049 34.6744 32.0104L25.3317 41.3397C24.9815 41.6897 24.7037 42.1051 24.5141 42.5624C24.3244 43.0198 24.2267 43.5099 24.2266 44.005C24.2264 44.5 24.3237 44.9903 24.513 45.4477C24.7023 45.9052 24.9798 46.3209 25.3297 46.6711C25.6796 47.0213 26.0951 47.2991 26.5524 47.4887C27.0097 47.6783 27.4999 47.776 27.995 47.7762C28.49 47.7764 28.9803 47.6791 29.4377 47.4898C29.8952 47.3005 30.3109 47.0217 30.6611 46.6717ZM34.6624 34.6717L37.3291 37.3384L38.6624 36.0051C38.8375 35.83 38.9764 35.6221 39.0711 35.3933C39.1659 35.1646 39.2147 34.9194 39.2147 34.6717C39.2147 34.4241 39.1659 34.1789 39.0711 33.9501C38.9764 33.7214 38.8375 33.5135 38.6624 33.3384C38.4873 33.1633 38.2794 33.0244 38.0506 32.9297C37.8219 32.8349 37.5767 32.7861 37.3291 32.7861C37.0814 32.7861 36.8362 32.8349 36.6075 32.9297C36.3787 33.0244 36.1708 33.1633 35.9957 33.3384L34.6624 34.6717Z" fill="#0B2A2C"/>
<path d="M34.6624 34.6717L37.3291 37.3384L38.6624 36.0051C38.8375 35.83 38.9764 35.6221 39.0711 35.3933C39.1659 35.1646 39.2147 34.9194 39.2147 34.6717C39.2147 34.4241 39.1659 34.1789 39.0711 33.9501C38.9764 33.7214 38.8375 33.5135 38.6624 33.3384C38.4873 33.1633 38.2794 33.0244 38.0506 32.9297C37.8219 32.8349 37.5767 32.7861 37.3291 32.7861C37.0814 32.7861 36.8362 32.8349 36.6075 32.9297C36.3787 33.0244 36.1708 33.1633 35.9957 33.3384L34.6624 34.6717Z" fill="#0B2A2C"/>
<path d="M29.0087 26.5315C29.0967 26.2022 29.5633 26.2022 29.6513 26.5315L30.13 28.3022C30.1452 28.3584 30.1749 28.4096 30.2161 28.4508C30.2572 28.492 30.3085 28.5216 30.3647 28.5368L32.1353 29.0142C32.4647 29.1022 32.4647 29.5688 32.1353 29.6568L30.3633 30.1355C30.3071 30.1507 30.2559 30.1804 30.2147 30.2216C30.1736 30.2627 30.1439 30.314 30.1287 30.3702L29.65 32.1395C29.562 32.4688 29.0953 32.4688 29.0073 32.1395L28.53 30.3688C28.5148 30.3126 28.4851 30.2614 28.444 30.2202C28.4028 30.1791 28.3515 30.1494 28.2953 30.1342L26.5233 29.6568C26.1953 29.5688 26.1953 29.1022 26.5233 29.0142L28.2967 28.5355C28.3529 28.5203 28.4041 28.4906 28.4453 28.4495C28.4865 28.4083 28.5161 28.357 28.5313 28.3008L29.0087 26.5315ZM42.342 25.1982C42.43 24.8688 42.8967 24.8688 42.9847 25.1982L43.462 26.9688C43.4772 27.025 43.5069 27.0763 43.5481 27.1175C43.5892 27.1586 43.6405 27.1883 43.6967 27.2035L45.4673 27.6808C45.7967 27.7688 45.7967 28.2355 45.4673 28.3235L43.6967 28.8008C43.6405 28.8161 43.5892 28.8457 43.5481 28.8869C43.5069 28.9281 43.4772 28.9793 43.462 29.0355L42.9847 30.8062C42.8967 31.1355 42.43 31.1355 42.342 30.8062L41.8633 29.0355C41.848 28.9791 41.8181 28.9278 41.7767 28.8866C41.7353 28.8454 41.6838 28.8158 41.6273 28.8008L39.8567 28.3235C39.5287 28.2355 39.5287 27.7688 39.8567 27.6808L41.6273 27.2035C41.6838 27.1885 41.7353 27.1589 41.7767 27.1177C41.8181 27.0765 41.848 27.0252 41.8633 26.9688L42.342 25.1982ZM43.6753 37.1982C43.7633 36.8688 44.23 36.8688 44.318 37.1982L44.7953 38.9688C44.8106 39.025 44.8402 39.0763 44.8814 39.1175C44.9226 39.1586 44.9738 39.1883 45.03 39.2035L46.8007 39.6808C47.13 39.7688 47.13 40.2355 46.8007 40.3235L45.03 40.8008C44.9738 40.8161 44.9226 40.8457 44.8814 40.8869C44.8402 40.9281 44.8106 40.9793 44.7953 41.0355L44.318 42.8062C44.23 43.1355 43.7633 43.1355 43.6753 42.8062L43.198 41.0355C43.1827 40.9791 43.1528 40.9278 43.1114 40.8866C43.07 40.8454 43.0185 40.8158 42.962 40.8008L41.1913 40.3235C40.8633 40.2355 40.8633 39.7688 41.1913 39.6808L42.962 39.2035C43.0185 39.1885 43.07 39.1589 43.1114 39.1177C43.1528 39.0765 43.1827 39.0252 43.198 38.9688L43.6753 37.1982Z" fill="#0B2A2C"/>
</svg>
