<svg width="72" height="73" viewBox="0 0 72 73" fill="none" xmlns="http://www.w3.org/2000/svg">
<rect y="0.308594" width="72" height="72" rx="36" fill="white"/>
<g clip-path="url(#clip0_13263_11459)">
<path d="M30.6615 52.3073C33.6055 52.3073 35.9948 49.918 35.9948 46.974V41.6406H30.6615C27.7175 41.6406 25.3281 44.03 25.3281 46.974C25.3281 49.918 27.7175 52.3073 30.6615 52.3073Z" fill="#0ACF83"/>
<path d="M25.3281 36.3099C25.3281 33.3659 27.7175 30.9766 30.6615 30.9766H35.9948V41.6432H30.6615C27.7175 41.6432 25.3281 39.2539 25.3281 36.3099Z" fill="#A259FF"/>
<path d="M25.3281 25.6419C25.3281 22.6979 27.7175 20.3086 30.6615 20.3086H35.9948V30.9753H30.6615C27.7175 30.9753 25.3281 28.5859 25.3281 25.6419Z" fill="#F24E1E"/>
<path d="M36 20.3086H41.3333C44.2773 20.3086 46.6667 22.6979 46.6667 25.6419C46.6667 28.5859 44.2773 30.9753 41.3333 30.9753H36V20.3086Z" fill="#FF7262"/>
<path d="M46.6667 36.3099C46.6667 39.2539 44.2773 41.6432 41.3333 41.6432C38.3893 41.6432 36 39.2539 36 36.3099C36 33.3659 38.3893 30.9766 41.3333 30.9766C44.2773 30.9766 46.6667 33.3659 46.6667 36.3099Z" fill="#1ABCFE"/>
</g>
<defs>
<clipPath id="clip0_13263_11459">
<rect width="21.34" height="32" fill="white" transform="translate(25.3281 20.3086)"/>
</clipPath>
</defs>
</svg>
