<svg width="1463" height="549" viewBox="0 0 1463 549" fill="none" xmlns="http://www.w3.org/2000/svg">
<rect width="182.857" height="182.857" transform="matrix(1 0 0 -1 182.855 365.714)" fill="#9F998A"/>
<rect width="182.857" height="182.857" transform="matrix(1 0 0 -1 548.57 365.714)" fill="#9F998A"/>
<rect width="182.857" height="182.857" transform="matrix(1 0 0 -1 914.285 365.714)" fill="#9F998A"/>
<rect width="182.857" height="182.857" transform="matrix(1 0 0 -1 1280 365.714)" fill="#9F998A"/>
<rect width="182.857" height="182.857" transform="matrix(1 0 0 -1 731.43 548.571)" fill="#9F998A"/>
<rect width="182.857" height="182.857" transform="matrix(1 0 0 -1 365.715 548.571)" fill="#9F998A"/>
<rect width="182.857" height="182.857" transform="matrix(1 0 0 -1 0 548.571)" fill="#9F998A"/>
<rect width="182.857" height="182.857" transform="matrix(1 0 0 -1 1097.14 548.571)" fill="#9F998A"/>
<rect width="182.857" height="182.857" transform="matrix(1 0 0 -1 0 182.857)" fill="#9F998A"/>
<rect width="182.857" height="182.857" transform="matrix(1 0 0 -1 365.715 182.857)" fill="#9F998A"/>
<rect width="182.857" height="182.857" transform="matrix(1 0 0 -1 731.43 182.857)" fill="#9F998A"/>
<rect width="182.857" height="182.857" transform="matrix(1 0 0 -1 1097.14 182.857)" fill="#9F998A"/>
</svg>
