<svg width="577" height="342" viewBox="0 0 577 342" fill="none" xmlns="http://www.w3.org/2000/svg">
<rect width="56.3785" height="56.3785" transform="matrix(1 0 0 -1 0.5 227.91)" fill="#11190C" fill-opacity="0.2"/>
<rect width="56.3785" height="56.3785" transform="matrix(1 0 0 -1 0.5 113.607)" fill="#11190C" fill-opacity="0.2"/>
<rect width="56.3785" height="56.3785" transform="matrix(1 0 0 -1 0.5 341.696)" fill="#11190C" fill-opacity="0.2"/>
<rect width="56.3785" height="56.3785" transform="matrix(1 0 0 -1 520.121 227.91)" fill="#11190C" fill-opacity="0.2"/>
<rect width="56.3785" height="56.3785" transform="matrix(1 0 0 -1 520.121 113.607)" fill="#11190C" fill-opacity="0.2"/>
<rect width="56.3785" height="56.3785" transform="matrix(1 0 0 -1 520.121 341.696)" fill="#11190C" fill-opacity="0.2"/>
<rect width="462.303" height="56.3785" transform="matrix(1 0 0 -1 57.8164 285.318)" fill="#11190C" fill-opacity="0.2"/>
<rect width="462.303" height="56.3785" transform="matrix(1 0 0 -1 57.8164 170.682)" fill="#11190C" fill-opacity="0.2"/>
<rect width="462.303" height="56.3785" transform="matrix(1 0 0 -1 57.8164 56.3789)" fill="#11190C" fill-opacity="0.2"/>
</svg>
