<svg width="32" height="32" viewBox="0 0 32 32" fill="none" xmlns="http://www.w3.org/2000/svg">
<path d="M26.6 28C23.8222 28 21.0724 27.4 18.3507 26.2C15.6289 25 13.1564 23.2889 10.9333 21.0667C8.71022 18.8444 6.99911 16.3778 5.8 13.6667C4.60089 10.9556 4.00089 8.2 4 5.4V4H11.8667L13.1 10.7L9.3 14.5333C9.78889 15.4 10.3333 16.2222 10.9333 17C11.5333 17.7778 12.1778 18.5 12.8667 19.1667C13.5111 19.8111 14.2169 20.428 14.984 21.0173C15.7511 21.6067 16.5787 22.1564 17.4667 22.6667L21.3333 18.8L28 20.1667V28H26.6Z" fill="#E6FF02"/>
</svg>
