<svg width="1280" height="361" viewBox="0 0 1280 361" fill="none" xmlns="http://www.w3.org/2000/svg">
<path d="M-5.9927 387V7.80968H100.391L216.255 373.307H178.863L294.726 7.80968H401.637V387H334.225V30.4558H345.285L232.581 387H159.376L47.7259 33.6157H58.259V387H-5.9927ZM456.639 387V118.407H522.998V387H456.639ZM453.479 74.168V0.963185H525.631V74.168H453.479ZM580.279 387V118.407H645.058V183.185H646.638V387H580.279ZM646.638 246.91L639.791 183.185C646.111 160.364 656.82 142.984 671.917 131.047C687.014 119.109 705.096 113.14 726.162 113.14C733.535 113.14 738.802 113.843 741.962 115.247V177.919C740.206 177.216 737.749 176.865 734.589 176.865C731.429 176.514 727.567 176.339 723.002 176.339C697.372 176.339 678.237 181.956 665.597 193.192C652.957 204.427 646.638 222.333 646.638 246.91ZM891.935 392.267C863.495 392.267 838.391 386.298 816.623 374.36C795.206 362.423 778.529 345.921 766.591 324.855C754.654 303.438 748.685 279.036 748.685 251.65C748.685 224.264 754.654 200.214 766.591 179.499C778.529 158.784 795.206 142.633 816.623 131.047C838.391 119.109 863.495 113.14 891.935 113.14C920.725 113.14 945.829 119.109 967.246 131.047C988.663 142.633 1005.34 158.784 1017.28 179.499C1029.22 200.214 1035.18 224.264 1035.18 251.65C1035.18 279.036 1029.04 303.438 1016.75 324.855C1004.81 345.921 988.137 362.423 966.719 374.36C945.302 386.298 920.374 392.267 891.935 392.267ZM891.935 339.075C905.979 339.075 918.618 335.564 929.854 328.541C941.089 321.168 949.866 310.986 956.186 297.996C962.506 284.654 965.666 269.03 965.666 251.123C965.666 224.791 958.644 204.076 944.6 188.978C930.907 173.881 913.352 166.332 891.935 166.332C870.517 166.332 852.787 173.881 838.743 188.978C824.698 204.076 817.676 224.791 817.676 251.123C817.676 269.03 820.836 284.654 827.156 297.996C833.827 310.986 842.605 321.168 853.489 328.541C864.724 335.564 877.539 339.075 891.935 339.075ZM1174.55 392.267C1137.34 392.267 1107.67 384.542 1085.55 369.094C1063.43 353.294 1051.32 331.526 1049.21 303.789H1109.78C1111.53 317.482 1118.03 327.839 1129.26 334.861C1140.5 341.883 1155.59 345.394 1174.55 345.394C1191.76 345.394 1204.57 342.761 1213 337.495C1221.78 331.877 1226.17 323.977 1226.17 313.795C1226.17 306.422 1223.71 300.453 1218.79 295.889C1213.88 290.974 1204.57 286.936 1190.88 283.776L1147.69 273.77C1118.2 267.45 1096.26 257.619 1081.86 244.277C1067.82 230.584 1060.8 213.556 1060.8 193.192C1060.8 168.263 1070.28 148.777 1089.24 134.733C1108.55 120.338 1135.05 113.14 1168.76 113.14C1202.12 113.14 1228.8 120.338 1248.81 134.733C1269.18 148.777 1280.41 168.263 1282.52 193.192H1221.95C1220.2 182.307 1214.58 174.057 1205.1 168.439C1195.97 162.821 1183.33 160.012 1167.18 160.012C1152.08 160.012 1140.67 162.47 1132.95 167.386C1125.22 171.95 1121.36 178.796 1121.36 187.925C1121.36 194.947 1124.35 200.916 1130.32 205.831C1136.28 210.396 1146.29 214.433 1160.33 217.944L1206.68 228.477C1233.01 234.446 1252.85 244.804 1266.19 259.55C1279.88 274.296 1286.73 291.676 1286.73 311.689C1286.73 337.319 1276.9 357.156 1257.24 371.2C1237.58 385.244 1210.02 392.267 1174.55 392.267Z" fill="#E6FF02"/>
</svg>
