<svg width="32" height="32" viewBox="0 0 32 32" fill="none" xmlns="http://www.w3.org/2000/svg">
<path fill-rule="evenodd" clip-rule="evenodd" d="M6.40078 6.4002C6.40078 5.5515 6.73792 4.73757 7.33804 4.13745C7.93816 3.53734 8.75209 3.2002 9.60078 3.2002H22.4008C23.2495 3.2002 24.0634 3.53734 24.6635 4.13745C25.2636 4.73757 25.6008 5.5515 25.6008 6.4002V25.6002C26.0251 25.6002 26.4321 25.7688 26.7322 26.0688C27.0322 26.3689 27.2008 26.7758 27.2008 27.2002C27.2008 27.6245 27.0322 28.0315 26.7322 28.3316C26.4321 28.6316 26.0251 28.8002 25.6008 28.8002H20.8008C20.3764 28.8002 19.9695 28.6316 19.6694 28.3316C19.3694 28.0315 19.2008 27.6245 19.2008 27.2002V24.0002C19.2008 23.5758 19.0322 23.1689 18.7322 22.8688C18.4321 22.5688 18.0251 22.4002 17.6008 22.4002H14.4008C13.9764 22.4002 13.5695 22.5688 13.2694 22.8688C12.9694 23.1689 12.8008 23.5758 12.8008 24.0002V27.2002C12.8008 27.6245 12.6322 28.0315 12.3322 28.3316C12.0321 28.6316 11.6251 28.8002 11.2008 28.8002H6.40078C5.97643 28.8002 5.56947 28.6316 5.26941 28.3316C4.96935 28.0315 4.80078 27.6245 4.80078 27.2002C4.80078 26.7758 4.96935 26.3689 5.26941 26.0688C5.56947 25.7688 5.97643 25.6002 6.40078 25.6002V6.4002ZM11.2008 8.0002H14.4008V11.2002H11.2008V8.0002ZM14.4008 14.4002H11.2008V17.6002H14.4008V14.4002ZM17.6008 8.0002H20.8008V11.2002H17.6008V8.0002ZM20.8008 14.4002H17.6008V17.6002H20.8008V14.4002Z" fill="#E6FF02"/>
</svg>
