<svg width="64" height="64" viewBox="0 0 64 64" fill="none" xmlns="http://www.w3.org/2000/svg">
<path d="M9.84641 16.779C13.5877 12.723 19.2491 10.667 26.6704 10.667H29.3371V18.1843L27.1931 18.6137C23.5397 19.3443 20.9984 20.7817 19.6384 22.891C18.9286 24.0272 18.5261 25.3284 18.4704 26.667H26.6704C27.3777 26.667 28.0559 26.9479 28.556 27.448C29.0561 27.9481 29.3371 28.6264 29.3371 29.3337V48.0003C29.3371 50.9417 26.9451 53.3337 24.0037 53.3337H8.00375C7.2965 53.3337 6.61823 53.0527 6.11813 52.5526C5.61803 52.0525 5.33708 51.3742 5.33708 50.667V37.3337L5.34508 29.5497C5.32108 29.2537 4.81441 22.2403 9.84641 16.779ZM53.3371 53.3337H37.3371C36.6298 53.3337 35.9516 53.0527 35.4515 52.5526C34.9514 52.0525 34.6704 51.3742 34.6704 50.667V37.3337L34.6784 29.5497C34.6544 29.2537 34.1477 22.2403 39.1797 16.779C42.9211 12.723 48.5824 10.667 56.0037 10.667H58.6704V18.1843L56.5264 18.6137C52.8731 19.3443 50.3318 20.7817 48.9718 22.891C48.2619 24.0272 47.8594 25.3284 47.8037 26.667H56.0037C56.711 26.667 57.3893 26.9479 57.8894 27.448C58.3895 27.9481 58.6704 28.6264 58.6704 29.3337V48.0003C58.6704 50.9417 56.2784 53.3337 53.3371 53.3337Z" fill="#E6FF02"/>
</svg>
